# xmcd
#
# Track frame offsets: 
#        225
#        14436
#        28509
#        43029
#        56197
#        68484
#        83484
#        98379
#        114885
#        130931
#
# Disc length: 1971 seconds
#
# Revision: 0
# Processed by: cddbd v1.4PL0 Copyright (c) Steve Scherf et al.
# Submitted via: ExactAudioCopy v0.90a11
#
DISCID=7107b00a
DTITLE=Shirley Myers - Let It Rain
DYEAR=1900
DGENRE=
TTITLE0=Let It Rain
TTITLE1=Lettin' Go
TTITLE2=One Last Step
TTITLE3=A Rose In The Snow
TTITLE4=Grindin' Wheel
TTITLE5=Haven't You Heard
TTITLE6=Fallin' Out Of Love
TTITLE7=Thirty Nine Days
TTITLE8=Don't Say A Word
TTITLE9=Long, Long Gone
EXTD=
EXTT0=
EXTT1=
EXTT2=
EXTT3=
EXTT4=
EXTT5=
EXTT6=
EXTT7=
EXTT8=
EXTT9=
PLAYORDER=
